<svg width="332.2892333984375px" height="117.91999816894531px" xmlns="http://www.w3.org/2000/svg" viewBox="83.85538330078126 16.040000915527344 332.2892333984375 117.91999816894531" style="background: rgba(0, 0, 0, 0);" preserveAspectRatio="xMidYMid"><defs><filter id="editing-hole" x="-100%" y="-100%" width="300%" height="300%"><feFlood flood-color="#000" result="black"></feFlood><feMorphology operator="dilate" radius="2" in="SourceGraphic" result="erode"></feMorphology><feGaussianBlur in="erode" stdDeviation="4" result="blur"></feGaussianBlur><feOffset in="blur" dx="2" dy="2" result="offset"></feOffset><feComposite operator="atop" in="offset" in2="black" result="merge"></feComposite><feComposite operator="in" in="merge" in2="SourceGraphic" result="inner-shadow"></feComposite></filter></defs><g filter="url(#editing-hole)"><g transform="translate(141.92223119735718, 99.22500038146973)"><path d="M-1.73-25.47L-1.73-25.47L-1.73-25.47Q-2.94-27.20-2.94-29.12L-2.94-29.12L-2.94-29.12Q-2.94-31.04-1.50-33.12L-1.50-33.12L-1.50-33.12Q-0.06-35.20 2.82-36.22L2.82-36.22L2.82-36.22Q4.22-36.74 5.57-36.74L5.57-36.74L5.57-36.74Q6.91-36.74 8.26-36.22L8.26-36.22L8.26-36.22Q8.58-36.10 8.45-35.84L8.45-35.84L8.45-35.84Q8.32-35.78 8.13-35.78L8.13-35.78L8.13-35.78Q6.78-36.29 5.50-36.29L5.50-36.29L5.50-36.29Q3.07-36.29 0.32-34.21L0.32-34.21L0.32-34.21Q-2.43-32.13-2.43-29.12L-2.43-29.12L-2.43-29.12Q-2.43-28.42-2.18-27.55L-2.18-27.55L-2.18-27.55Q-1.92-26.69-1.47-25.92L-1.47-25.92L-1.47-25.92Q0.06-28.67 3.20-30.85L3.20-30.85L3.20-30.85Q9.09-34.94 15.49-34.94L15.49-34.94L15.49-34.94Q19.78-34.94 22.14-32.90L22.14-32.90L22.14-32.90Q24.70-33.47 26.30-33.47L26.30-33.47L26.30-33.47Q27.90-33.47 29.66-32.64L29.66-32.64L29.66-32.64Q31.42-31.81 31.87-30.14L31.87-30.14L31.87-30.14Q32-29.89 32-29.63L32-29.63L32-29.63Q32-28.10 29.92-26.30L29.92-26.30L29.92-26.30Q27.84-24.51 24.06-23.17L24.06-23.17L24.06-23.17Q23.36-20.42 21.12-16.10L21.12-16.10L21.12-16.10Q18.88-11.78 17.57-8.45L17.57-8.45L17.57-8.45Q16.26-5.12 16.26-2.62L16.26-2.62L16.26-2.62Q16.26-1.98 16.32-1.34L16.32-1.34L16.32-1.34Q20.61-2.18 23.42-4.99L23.42-4.99L23.42-4.99Q25.86-7.30 26.50-10.50L26.50-10.50L26.50-10.50Q26.69-11.14 26.69-11.71L26.69-11.71L26.69-11.71Q26.69-13.50 25.66-14.14L25.66-14.14L25.66-14.14Q25.28-14.40 25.50-14.50L25.50-14.50L25.50-14.50Q25.73-14.59 25.86-14.53L25.86-14.53L25.86-14.53Q27.33-13.63 27.33-11.07L27.33-11.07L27.33-11.07Q27.33-8 24.83-4.99L24.83-4.99L24.83-4.99Q21.82-1.34 16.51-0.45L16.51-0.45L16.51-0.45Q17.09 1.92 19.58 1.92L19.58 1.92L19.58 1.92Q24.51 1.92 30.66-8.38L30.66-8.38L30.66-8.38Q32.70-11.78 35.71-18.94L35.71-18.94L35.71-18.94Q38.72-26.11 41.28-33.86L41.28-33.86L41.28-33.86Q41.41-34.56 42.37-34.75L42.37-34.75L42.37-34.75Q43.33-34.94 44.19-34.50L44.19-34.50L44.19-34.50Q45.06-34.05 44.93-33.22L44.93-33.22L44.93-33.22Q37.82-16.45 37.82-5.63L37.82-5.63L37.82-5.63Q37.82 0.70 40.32 0.64L40.32 0.64L40.32 0.64Q41.41 0.58 42.75-0.77L42.75-0.77L42.75-0.77Q44.10-2.11 44.99-4.48L44.99-4.48L44.99-4.48Q45.06-4.61 45.25-4.61L45.25-4.61L45.25-4.61Q45.63-4.74 45.63-4.35L45.63-4.35L45.63-4.35Q45.63-2.50 42.94 0.32L42.94 0.32L42.94 0.32Q41.28 2.18 39.55 2.18L39.55 2.18L39.55 2.18Q38.72 2.18 37.89 1.73L37.89 1.73L37.89 1.73Q35.26 0.38 35.14-4.35L35.14-4.35L35.14-4.35Q35.14-4.93 35.14-7.10L35.14-7.10L35.14-7.10Q35.14-9.28 35.97-15.42L35.97-15.42L35.97-15.42Q32.96-9.98 31.81-8.13L31.81-8.13L31.81-8.13Q24.83 3.20 19.39 3.20L19.39 3.20L19.39 3.20Q15.55 3.20 14.34-0.26L14.34-0.26L14.34-0.26Q14.21-0.26 14.02-0.26L14.02-0.26L14.02-0.26Q11.33-0.26 8.90-1.34L8.90-1.34L8.90-1.34Q4.03-3.52 2.56-9.22L2.56-9.22L2.56-9.22Q2.24-10.50 2.24-11.97L2.24-11.97L2.24-11.97Q2.24-16.70 5.31-21.38L5.31-21.38L5.31-21.38Q1.79-22.14-0.32-24L-0.32-24L-0.32-24Q-1.22-22.27-1.22-21.09L-1.22-21.09L-1.22-21.09Q-1.22-19.90-1.09-19.07L-1.09-19.07L-1.09-19.07Q-0.96-18.24-0.10-17.22L-0.10-17.22L-0.10-17.22Q0.77-16.19 2.30-15.62L2.30-15.62L2.30-15.62Q2.62-15.49 2.40-15.23L2.40-15.23L2.40-15.23Q2.18-14.98 1.79-15.17L1.79-15.17L1.79-15.17Q-2.05-17.15-2.56-19.90L-2.56-19.90L-2.56-19.90Q-2.69-20.67-2.69-22.02L-2.69-22.02L-2.69-22.02Q-2.69-23.36-1.73-25.47ZM14.14-1.02L14.14-1.02L14.14-1.02Q13.89-2.05 13.89-3.81L13.89-3.81L13.89-3.81Q13.89-5.57 14.85-8.51L14.85-8.51L14.85-8.51Q15.81-11.46 18.14-15.81L18.14-15.81L18.14-15.81Q20.48-20.16 21.25-22.34L21.25-22.34L21.25-22.34Q15.30-20.74 10.69-20.74L10.69-20.74L10.69-20.74Q8.90-20.74 8-20.90L8-20.90L8-20.90Q7.10-21.06 6.72-21.06L6.72-21.06L6.72-21.06Q3.20-15.62 3.20-11.07L3.20-11.07L3.20-11.07Q3.20-6.53 6.27-3.78L6.27-3.78L6.27-3.78Q9.34-1.02 13.57-1.02L13.57-1.02L13.57-1.02Q13.82-1.02 14.14-1.02ZM16.06-33.92L16.06-33.92L16.06-33.92Q9.79-33.92 3.97-29.18L3.97-29.18L3.97-29.18Q1.22-26.94-0.13-24.45L-0.13-24.45L-0.13-24.45Q2.05-22.66 5.63-21.82L5.63-21.82L5.63-21.82Q6.91-23.55 7.30-24L7.30-24L7.30-24Q12.42-29.89 20.35-32.38L20.35-32.38L20.35-32.38Q18.75-33.92 16.06-33.92ZM8.32-23.17L7.04-21.57L7.04-21.57Q8.38-21.25 10.56-21.25L10.56-21.25L10.56-21.25Q15.62-21.25 21.44-22.98L21.44-22.98L21.44-22.98Q22.21-25.22 22.21-26.69L22.21-26.69L22.21-26.69Q22.21-28.16 22.02-29.38L22.02-29.38L22.02-29.38Q21.82-30.59 20.86-31.87L20.86-31.87L20.86-31.87Q13.50-29.38 8.32-23.17L8.32-23.17ZM22.66-32.38L22.66-32.38L22.66-32.38Q24.58-30.08 24.58-26.82L24.58-26.82L24.58-26.82Q24.58-25.41 24.19-23.81L24.19-23.81L24.19-23.81Q27.84-25.22 29.38-26.56L29.38-26.56L29.38-26.56Q31.36-28.42 31.36-29.89L31.36-29.89L31.36-29.89Q31.36-30.66 30.78-31.30L30.78-31.30L30.78-31.30Q29.31-32.96 26.50-32.96L26.50-32.96L26.50-32.96Q26.18-32.96 24.99-32.83L24.99-32.83L24.99-32.83Q23.81-32.70 22.66-32.38ZM58.50-12.29L58.50-12.29L58.50-12.29Q57.66-13.38 56.77-13.38L56.77-13.38L56.77-13.38Q54.21-13.38 50.56-7.74L50.56-7.74L50.56-7.74Q48.70-4.93 47.36-0.38L47.36-0.38L47.36-0.38Q47.30 0.13 46.78 0.13L46.78 0.13L46.78 0.13Q46.21 0.13 46.21-0.38L46.21-0.38L47.17-7.17L47.17-7.17Q47.81-12.29 47.87-13.60L47.87-13.60L47.87-13.60Q47.94-14.91 49.60-15.42L49.60-15.42L49.60-15.42Q50.11-15.55 50.66-15.55L50.66-15.55L50.66-15.55Q51.20-15.55 51.26-14.98L51.26-14.98L51.26-14.98Q51.26-14.78 51.20-14.56L51.20-14.56L51.20-14.56Q51.14-14.34 50.27-11.17L50.27-11.17L50.27-11.17Q49.41-8 49.15-7.42L49.15-7.42L49.15-7.42Q50.69-10.11 53.06-12.64L53.06-12.64L53.06-12.64Q55.42-15.17 56.70-15.17L56.70-15.17L56.70-15.17Q56.77-15.17 56.77-15.17L56.77-15.17L56.77-15.17Q58.50-15.17 59.01-13.06L59.01-13.06L59.01-13.06Q59.14-12.54 59.14-12.19L59.14-12.19L59.14-12.19Q59.14-11.84 58.94-11.84L58.94-11.84L58.94-11.84Q58.75-11.78 58.50-12.29ZM70.78-16.19L70.78-16.19L70.78-16.19Q72.77-16.19 72.77-13.89L72.77-13.89L72.77-13.89Q72.77-12.54 72.19-9.92L72.19-9.92L72.19-9.92Q71.62-7.30 69.89-4.58L69.89-4.58L69.89-4.58Q68.16-1.86 64.90-0.38L64.90-0.38L64.90-0.38Q62.91 0.45 61.57 0.45L61.57 0.45L61.57 0.45Q57.66 0.45 57.66-2.30L57.66-2.30L57.66-2.30Q57.66-3.52 58.62-4.42L58.62-4.42L58.62-4.42Q59.07-0.26 61.76-0.26L61.76-0.26L61.76-0.26Q61.95-0.26 62.14-0.26L62.14-0.26L62.14-0.26Q63.74-0.51 65.57-2.27L65.57-2.27L65.57-2.27Q67.39-4.03 68.74-6.88L68.74-6.88L68.74-6.88Q70.08-9.73 70.08-12.29L70.08-12.29L70.08-12.29Q70.08-14.46 69.31-14.08L69.31-14.08L69.31-14.08Q66.37-12.61 64.26-9.31L64.26-9.31L64.26-9.31Q62.14-6.02 62.08-2.75L62.08-2.75L62.08-2.75Q62.08-2.37 61.70-2.37L61.70-2.37L61.70-2.37Q61.31-2.37 60.67-3.04L60.67-3.04L60.67-3.04Q60.03-3.71 59.90-3.78L59.90-3.78L59.90-3.78Q59.90-6.78 61.44-13.22L61.44-13.22L61.44-13.22Q62.98-19.65 65.70-24.86L65.70-24.86L65.70-24.86Q68.42-30.08 71.81-32.19L71.81-32.19L71.81-32.19Q72.13-32.38 73.34-32.70L73.34-32.70L73.34-32.70Q74.56-33.02 74.88-33.02L74.88-33.02L74.88-33.02Q75.20-33.02 75.26-32.96L75.26-32.96L75.26-32.96Q77.06-32.51 77.95-31.10L77.95-31.10L77.95-31.10Q78.27-30.66 78.27-30.46L78.27-30.46L78.27-30.46Q78.27-30.27 78.02-30.27L78.02-30.27L78.02-30.27Q77.76-30.27 77.57-30.46L77.57-30.46L77.57-30.46Q76.16-31.62 74.24-31.62L74.24-31.62L74.24-31.62Q74.18-31.62 74.05-31.62L74.05-31.62L74.05-31.62Q71.04-31.55 66.91-21.82L66.91-21.82L66.91-21.82Q62.78-12.10 62.46-7.94L62.46-7.94L62.46-7.94Q63.36-9.47 65.86-12.22L65.86-12.22L65.86-12.22Q68.35-14.98 69.09-15.58L69.09-15.58L69.09-15.58Q69.82-16.19 70.78-16.19ZM80.06-9.09L80.06-9.09L80.06-9.09Q78.21-6.59 77.44-4.74L77.44-4.74L77.44-4.74Q76.67-2.88 76.67-1.98L76.67-1.98L76.67-1.98Q76.67-1.09 77.25-1.09L77.25-1.09L77.25-1.09Q78.98-1.09 84.22-8.77L84.22-8.77L84.22-8.77Q86.27-11.39 86.27-8.70L86.27-8.70L86.27-8.70Q86.14-7.04 86.14-5.89L86.14-5.89L86.14-5.89Q86.14-1.02 88.19-1.02L88.19-1.02L88.19-1.02Q90.37-1.02 93.50-4.54L93.50-4.54L93.50-4.54Q93.70-4.74 93.95-4.29L93.95-4.29L93.95-4.29Q93.76-3.84 92.64-2.72L92.64-2.72L92.64-2.72Q91.52-1.60 89.86-0.70L89.86-0.70L89.86-0.70Q88.19 0.19 87.33 0.19L87.33 0.19L87.33 0.19Q86.46 0.19 85.95 0L85.95 0L85.95 0Q83.58-0.83 83.58-6.53L83.58-6.53L83.58-6.53Q81.02-2.50 79.87-1.41L79.87-1.41L79.87-1.41Q78.08 0.26 76.93 0.26L76.93 0.26L76.93 0.26Q76.86 0.26 76.74 0.26L76.74 0.26L76.74 0.26Q74.62-0.06 74.62-2.59L74.62-2.59L74.62-2.59Q74.62-5.12 76.26-8.22L76.26-8.22L76.26-8.22Q77.89-11.33 80.58-13.82L80.58-13.82L80.58-13.82Q83.26-16.32 85.95-16.32L85.95-16.32L85.95-16.32Q87.23-16.32 88.45-15.68L88.45-15.68L88.45-15.68Q89.54-15.04 89.54-13.66L89.54-13.66L89.54-13.66Q89.54-12.29 88.32-12.10L88.32-12.10L88.32-12.10Q88.77-12.86 88.77-13.54L88.77-13.54L88.77-13.54Q88.77-14.21 88.13-14.53L88.13-14.53L88.13-14.53Q87.49-14.85 86.98-14.85L86.98-14.85L86.98-14.85Q84.22-14.85 80.06-9.09ZM107.78-1.34L107.78-1.34L107.78-1.34Q107.78 0.13 105.28 1.28L105.28 1.28L105.28 1.28Q104.38 1.66 103.49 1.66L103.49 1.66L103.49 1.66Q101.44 1.47 100.83 0.22L100.83 0.22L100.83 0.22Q100.22-1.02 100.22-1.92L100.22-1.92L100.22-1.92Q100.22-2.82 100.35-4L100.35-4L100.35-4Q100.48-5.18 100.83-6.88L100.83-6.88L100.83-6.88Q101.18-8.58 101.73-10.27L101.73-10.27L101.73-10.27Q102.27-11.97 102.27-12.03L102.27-12.03L102.27-12.03Q101.70-11.26 99.71-8.96L99.71-8.96L99.71-8.96Q94.59-3.26 94.11-1.92L94.11-1.92L94.11-1.92Q93.63-0.58 92.22-0.13L92.22-0.13L92.22-0.13Q91.46 0.13 91.46-0.45L91.46-0.45L91.46-0.45Q91.46-0.58 91.90-2.30L91.90-2.30L91.90-2.30Q93.31-7.68 93.31-10.88L93.31-10.88L93.25-12.61L93.25-12.61Q93.25-13.70 94.72-14.40L94.72-14.40L94.72-14.40Q95.36-14.72 95.87-14.72L95.87-14.72L95.87-14.72Q96.77-14.72 96.58-13.86L96.58-13.86L96.58-13.86Q96.38-12.99 95.94-10.62L95.94-10.62L95.94-10.62Q94.91-5.06 94.66-4.54L94.66-4.54L94.66-4.54Q98.43-8 102.78-14.78L102.78-14.78L102.78-14.78Q103.04-15.23 103.55-15.23L103.55-15.23L103.55-15.23Q105.41-15.23 105.60-14.59L105.60-14.59L105.60-14.59Q105.73-14.14 104.93-11.74L104.93-11.74L104.93-11.74Q104.13-9.34 103.74-7.81L103.74-7.81L103.74-7.81Q102.78-3.90 102.78-2.21L102.78-2.21L102.78-2.21Q102.78-0.51 103.04 0.19L103.04 0.19L103.04 0.19Q103.30 0.90 103.94 0.83L103.94 0.83L103.94 0.83Q105.79 0.58 107.52-1.54L107.52-1.54L107.52-1.54Q107.78-1.79 107.78-1.34ZM106.62-3.52L106.62-3.52L106.62-3.52Q106.11-4.74 106.11-6.02L106.11-6.02L106.11-6.02Q106.11-7.30 107.36-8.74L107.36-8.74L107.36-8.74Q108.61-10.18 111.33-10.18L111.33-10.18L111.33-10.18Q114.05-10.18 120-7.23L120-7.23L120-7.23Q120.70-8.64 121.47-10.94L121.47-10.94L121.47-10.94Q121.02-10.94 120.58-10.94L120.58-10.94L120.58-10.94Q115.90-10.94 113.73-13.38L113.73-13.38L113.73-13.38Q112.45-14.85 112.45-16.61L112.45-16.61L112.45-16.61Q112.45-18.37 113.28-20.16L113.28-20.16L113.28-20.16Q110.98-23.42 110.98-27.39L110.98-27.39L110.98-27.39Q110.98-34.37 115.97-36.86L115.97-36.86L115.97-36.86Q117.18-37.50 118.75-37.50L118.75-37.50L118.75-37.50Q120.32-37.50 122.11-35.71L122.11-35.71L122.11-35.71Q124.99-32.83 124.99-25.79L124.99-25.79L124.99-25.79Q124.99-21.44 123.58-15.74L123.58-15.74L123.58-15.74Q124.54-15.74 125.82-16.06L125.82-16.06L125.82-16.06Q127.81-26.50 130.37-31.04L130.37-31.04L130.37-31.04Q133.89-37.44 137.22-37.44L137.22-37.44L137.22-37.44Q140.10-37.44 141.18-33.41L141.18-33.41L141.18-33.41Q141.63-31.74 141.63-29.95L141.63-29.95L141.63-29.95Q141.63-26.50 139.87-22.85L139.87-22.85L139.87-22.85Q138.11-19.20 134.59-16.16L134.59-16.16L134.59-16.16Q131.07-13.12 126.34-11.71L126.34-11.71L126.34-11.71Q125.25-8.13 123.78-5.12L123.78-5.12L123.78-5.12Q127.55-2.82 132.67-0.70L132.67-0.70L132.67-0.70Q144.77 4.22 146.62-0.83L146.62-0.83L146.62-0.83Q146.88-1.41 147.14-1.34L147.14-1.34L147.14-1.34Q147.26-1.28 147.26-1.12L147.26-1.12L147.26-1.12Q147.26-0.96 147.20-0.77L147.20-0.77L147.20-0.77Q146.30 1.73 143.74 2.69L143.74 2.69L143.74 2.69Q141.82 3.46 140.48 3.46L140.48 3.46L140.48 3.46Q136.51 3.46 132.22 1.44L132.22 1.44L132.22 1.44Q127.94-0.58 125.50-2.24L125.50-2.24L123.14-3.90L123.14-3.90Q119.87 1.09 115.01 1.09L115.01 1.09L115.01 1.09Q114.11 1.09 113.09 0.90L113.09 0.90L113.09 0.90Q108.22 0.06 106.62-3.52ZM123.97-25.79L123.97-25.79L123.97-25.79Q123.97-34.11 120.26-36.29L120.26-36.29L120.26-36.29Q119.17-36.93 117.86-36.93L117.86-36.93L117.86-36.93Q116.54-36.93 114.94-35.58L114.94-35.58L114.94-35.58Q112.06-33.02 112.06-28.42L112.06-28.42L112.06-28.42Q112.06-24.83 113.86-21.18L113.86-21.18L113.86-21.18Q114.88-22.91 116.61-24.06L116.61-24.06L116.61-24.06Q117.06-24.38 117.15-24.22L117.15-24.22L117.15-24.22Q117.25-24.06 117.12-24L117.12-24L117.12-24Q115.07-22.34 114.37-20.16L114.37-20.16L114.37-20.16Q115.65-18.18 117.95-16.99L117.95-16.99L117.95-16.99Q120.26-15.81 122.75-15.74L122.75-15.74L122.75-15.74Q123.97-21.44 123.97-25.79ZM138.24-23.49L138.24-23.49L138.24-23.49Q140.22-27.84 140.22-31.87L140.22-31.87L140.22-31.87Q140.22-35.90 138.30-35.90L138.30-35.90L138.30-35.90Q134.85-35.90 129.79-22.21L129.79-22.21L129.79-22.21Q128.90-19.84 128-16.90L128-16.90L128-16.90Q131.71-18.82 133.89-23.23L133.89-23.23L133.89-23.23Q134.02-23.55 134.24-23.36L134.24-23.36L134.24-23.36Q134.46-23.17 134.34-23.04L134.34-23.04L134.34-23.04Q131.90-18.11 127.81-16.19L127.81-16.19L126.72-12.99L126.72-12.99Q134.59-15.17 138.24-23.49ZM113.54-1.15L113.54-1.15L113.54-1.15Q113.41-1.15 113.28-1.15L113.28-1.15L113.28-1.15Q112.90-1.15 113.02-1.47L113.02-1.47L113.02-1.47Q113.02-1.66 113.18-1.66L113.18-1.66L113.18-1.66Q113.34-1.66 113.47-1.66L113.47-1.66L113.47-1.66Q116.86-1.66 119.30-5.95L119.30-5.95L119.30-5.95Q115.84-7.49 114.66-7.71L114.66-7.71L114.66-7.71Q113.47-7.94 112.64-7.94L112.64-7.94L112.64-7.94Q110.34-7.94 109.22-6.72L109.22-6.72L109.22-6.72Q108.10-5.50 108.10-4.48L108.10-4.48L108.10-4.48Q108.10-3.46 108.61-2.43L108.61-2.43L108.61-2.43Q110.14 0.26 114.43 0.26L114.43 0.26L114.43 0.26Q117.44 0.26 119.23-1.15L119.23-1.15L119.23-1.15Q121.22-2.69 121.79-3.97L121.79-3.97L122.11-4.54L122.11-4.54Q121.15-5.06 119.87-5.70L119.87-5.70L119.87-5.70Q117.12-1.15 113.54-1.15ZM114.11-18.30L114.11-18.30L114.11-18.30Q114.11-15.74 116.38-13.95L116.38-13.95L116.38-13.95Q118.66-12.16 121.79-12.16L121.79-12.16L121.79-12.16Q122.11-13.18 122.62-15.23L122.62-15.23L122.62-15.23Q117.38-15.42 114.18-19.01L114.18-19.01L114.18-19.01Q114.11-18.62 114.11-18.30ZM122.24-11.01L122.24-11.01L122.24-11.01Q121.34-8.51 120.58-6.91L120.58-6.91L122.75-5.76L122.75-5.76Q123.39-7.04 124.80-11.46L124.80-11.46L124.80-11.46Q123.90-11.26 122.24-11.01ZM125.12-12.54L125.70-15.49L125.70-15.49Q124.67-15.23 123.46-15.23L123.46-15.23L123.46-15.23Q122.94-13.18 122.62-12.16L122.62-12.16L122.62-12.16Q123.78-12.29 125.12-12.54L125.12-12.54ZM132.54-25.47L132.54-25.47L132.54-25.47Q131.33-27.20 131.33-29.12L131.33-29.12L131.33-29.12Q131.33-31.04 132.77-33.12L132.77-33.12L132.77-33.12Q134.21-35.20 137.09-36.22L137.09-36.22L137.09-36.22Q138.50-36.74 139.84-36.74L139.84-36.74L139.84-36.74Q141.18-36.74 142.53-36.22L142.53-36.22L142.53-36.22Q142.85-36.10 142.72-35.84L142.72-35.84L142.72-35.84Q142.59-35.78 142.40-35.78L142.40-35.78L142.40-35.78Q141.06-36.29 139.78-36.29L139.78-36.29L139.78-36.29Q137.34-36.29 134.59-34.21L134.59-34.21L134.59-34.21Q131.84-32.13 131.84-29.12L131.84-29.12L131.84-29.12Q131.84-28.42 132.10-27.55L132.10-27.55L132.10-27.55Q132.35-26.69 132.80-25.92L132.80-25.92L132.80-25.92Q134.34-28.67 137.47-30.85L137.47-30.85L137.47-30.85Q143.36-34.94 149.76-34.94L149.76-34.94L149.76-34.94Q154.05-34.94 156.42-32.90L156.42-32.90L156.42-32.90Q158.98-33.47 160.58-33.47L160.58-33.47L160.58-33.47Q162.18-33.47 163.94-32.64L163.94-32.64L163.94-32.64Q165.70-31.81 166.14-30.14L166.14-30.14L166.14-30.14Q166.27-29.89 166.27-29.63L166.27-29.63L166.27-29.63Q166.27-28.10 164.19-26.30L164.19-26.30L164.19-26.30Q162.11-24.51 158.34-23.17L158.34-23.17L158.34-23.17Q157.63-20.42 155.39-16.10L155.39-16.10L155.39-16.10Q153.15-11.78 151.84-8.45L151.84-8.45L151.84-8.45Q150.53-5.12 150.53-2.62L150.53-2.62L150.53-2.62Q150.53-1.98 150.59-1.34L150.59-1.34L150.59-1.34Q154.88-2.18 157.70-4.99L157.70-4.99L157.70-4.99Q160.13-7.30 160.77-10.50L160.77-10.50L160.77-10.50Q160.96-11.14 160.96-11.71L160.96-11.71L160.96-11.71Q160.96-13.50 159.94-14.14L159.94-14.14L159.94-14.14Q159.55-14.40 159.78-14.50L159.78-14.50L159.78-14.50Q160-14.59 160.13-14.53L160.13-14.53L160.13-14.53Q161.60-13.63 161.60-11.07L161.60-11.07L161.60-11.07Q161.60-8 159.10-4.99L159.10-4.99L159.10-4.99Q156.10-1.34 150.78-0.45L150.78-0.45L150.78-0.45Q151.36 1.92 153.86 1.92L153.86 1.92L153.86 1.92Q158.78 1.92 164.93-8.38L164.93-8.38L164.93-8.38Q166.98-11.78 169.98-18.94L169.98-18.94L169.98-18.94Q172.99-26.11 175.55-33.86L175.55-33.86L175.55-33.86Q175.68-34.56 176.64-34.75L176.64-34.75L176.64-34.75Q177.60-34.94 178.46-34.50L178.46-34.50L178.46-34.50Q179.33-34.05 179.20-33.22L179.20-33.22L179.20-33.22Q172.10-16.45 172.10-5.63L172.10-5.63L172.10-5.63Q172.10 0.70 174.59 0.64L174.59 0.64L174.59 0.64Q175.68 0.58 177.02-0.77L177.02-0.77L177.02-0.77Q178.37-2.11 179.26-4.48L179.26-4.48L179.26-4.48Q179.33-4.61 179.52-4.61L179.52-4.61L179.52-4.61Q179.90-4.74 179.90-4.35L179.90-4.35L179.90-4.35Q179.90-2.50 177.22 0.32L177.22 0.32L177.22 0.32Q175.55 2.18 173.82 2.18L173.82 2.18L173.82 2.18Q172.99 2.18 172.16 1.73L172.16 1.73L172.16 1.73Q169.54 0.38 169.41-4.35L169.41-4.35L169.41-4.35Q169.41-4.93 169.41-7.10L169.41-7.10L169.41-7.10Q169.41-9.28 170.24-15.42L170.24-15.42L170.24-15.42Q167.23-9.98 166.08-8.13L166.08-8.13L166.08-8.13Q159.10 3.20 153.66 3.20L153.66 3.20L153.66 3.20Q149.82 3.20 148.61-0.26L148.61-0.26L148.61-0.26Q148.48-0.26 148.29-0.26L148.29-0.26L148.29-0.26Q145.60-0.26 143.17-1.34L143.17-1.34L143.17-1.34Q138.30-3.52 136.83-9.22L136.83-9.22L136.83-9.22Q136.51-10.50 136.51-11.97L136.51-11.97L136.51-11.97Q136.51-16.70 139.58-21.38L139.58-21.38L139.58-21.38Q136.06-22.14 133.95-24L133.95-24L133.95-24Q133.06-22.27 133.06-21.09L133.06-21.09L133.06-21.09Q133.06-19.90 133.18-19.07L133.18-19.07L133.18-19.07Q133.31-18.24 134.18-17.22L134.18-17.22L134.18-17.22Q135.04-16.19 136.58-15.62L136.58-15.62L136.58-15.62Q136.90-15.49 136.67-15.23L136.67-15.23L136.67-15.23Q136.45-14.98 136.06-15.17L136.06-15.17L136.06-15.17Q132.22-17.15 131.71-19.90L131.71-19.90L131.71-19.90Q131.58-20.67 131.58-22.02L131.58-22.02L131.58-22.02Q131.58-23.36 132.54-25.47ZM148.42-1.02L148.42-1.02L148.42-1.02Q148.16-2.05 148.16-3.81L148.16-3.81L148.16-3.81Q148.16-5.57 149.12-8.51L149.12-8.51L149.12-8.51Q150.08-11.46 152.42-15.81L152.42-15.81L152.42-15.81Q154.75-20.16 155.52-22.34L155.52-22.34L155.52-22.34Q149.57-20.74 144.96-20.74L144.96-20.74L144.96-20.74Q143.17-20.74 142.27-20.90L142.27-20.90L142.27-20.90Q141.38-21.06 140.99-21.06L140.99-21.06L140.99-21.06Q137.47-15.62 137.47-11.07L137.47-11.07L137.47-11.07Q137.47-6.53 140.54-3.78L140.54-3.78L140.54-3.78Q143.62-1.02 147.84-1.02L147.84-1.02L147.84-1.02Q148.10-1.02 148.42-1.02ZM150.34-33.92L150.34-33.92L150.34-33.92Q144.06-33.92 138.24-29.18L138.24-29.18L138.24-29.18Q135.49-26.94 134.14-24.45L134.14-24.45L134.14-24.45Q136.32-22.66 139.90-21.82L139.90-21.82L139.90-21.82Q141.18-23.55 141.57-24L141.57-24L141.57-24Q146.69-29.89 154.62-32.38L154.62-32.38L154.62-32.38Q153.02-33.92 150.34-33.92ZM142.59-23.17L141.31-21.57L141.31-21.57Q142.66-21.25 144.83-21.25L144.83-21.25L144.83-21.25Q149.89-21.25 155.71-22.98L155.71-22.98L155.71-22.98Q156.48-25.22 156.48-26.69L156.48-26.69L156.48-26.69Q156.48-28.16 156.29-29.38L156.29-29.38L156.29-29.38Q156.10-30.59 155.14-31.87L155.14-31.87L155.14-31.87Q147.78-29.38 142.59-23.17L142.59-23.17ZM156.93-32.38L156.93-32.38L156.93-32.38Q158.85-30.08 158.85-26.82L158.85-26.82L158.85-26.82Q158.85-25.41 158.46-23.81L158.46-23.81L158.46-23.81Q162.11-25.22 163.65-26.56L163.65-26.56L163.65-26.56Q165.63-28.42 165.63-29.89L165.63-29.89L165.63-29.89Q165.63-30.66 165.06-31.30L165.06-31.30L165.06-31.30Q163.58-32.96 160.77-32.96L160.77-32.96L160.77-32.96Q160.45-32.96 159.26-32.83L159.26-32.83L159.26-32.83Q158.08-32.70 156.93-32.38ZM178.11-17.54L178.11-17.54L178.11-17.54Q178.11-23.42 184.00-29.12L184.00-29.12L184.00-29.12Q183.55-30.78 183.55-31.94L183.55-31.94L183.55-31.94Q183.55-35.20 185.54-36.86L185.54-36.86L185.54-36.86Q186.56-37.63 187.46-37.63L187.46-37.63L187.46-37.63Q191.42-37.63 193.98-34.24L193.98-34.24L193.98-34.24Q195.01-34.37 196.19-34.37L196.19-34.37L196.19-34.37Q197.38-34.37 198.88-33.82L198.88-33.82L198.88-33.82Q200.38-33.28 201.22-31.52L201.22-31.52L201.22-31.52Q202.05-29.76 202.34-28.06L202.34-28.06L202.34-28.06Q202.62-26.37 202.69-23.68L202.69-23.68L202.69-23.68Q205.31-25.34 206.34-27.36L206.34-27.36L206.34-27.36Q207.36-29.38 207.36-30.18L207.36-30.18L207.36-30.18Q207.36-30.98 207.20-31.30L207.20-31.30L207.20-31.30Q207.04-31.62 207.30-31.74L207.30-31.74L207.30-31.74Q207.55-31.87 207.81-31.39L207.81-31.39L207.81-31.39Q208.06-30.91 208.06-29.82L208.06-29.82L208.06-29.82Q208.06-28.74 207.30-27.20L207.30-27.20L207.30-27.20Q205.95-24.58 202.75-22.91L202.75-22.91L202.75-22.91Q202.75-21.76 202.88-19.46L202.88-19.46L213.70-28.10L213.70-28.10Q218.69-32 221.09-34.72L221.09-34.72L221.09-34.72Q223.49-37.44 224.83-37.57L224.83-37.57L224.83-37.57Q225.22-37.57 225.22-37.06L225.22-37.06L225.22-37.06Q225.22-35.58 215.81-28.35L215.81-28.35L215.81-28.35Q205.89-20.86 202.94-18.43L202.94-18.43L202.94-13.44L202.94-13.44Q202.94-7.23 203.42-5.22L203.42-5.22L203.42-5.22Q203.90-3.20 204.35-1.92L204.35-1.92L204.35-1.92Q205.38 0.64 207.20 0.51L207.20 0.51L207.20 0.51Q209.02 0.38 210.50-0.54L210.50-0.54L210.50-0.54Q211.97-1.47 212.83-2.30L212.83-2.30L212.83-2.30Q213.70-3.14 215.55-5.50L215.55-5.50L215.55-5.50Q215.94-5.95 216.22-5.70L216.22-5.70L216.22-5.70Q216.51-5.44 216.06-4.86L216.06-4.86L216.06-4.86Q213.57-1.92 210.62 0.58L210.62 0.58L210.62 0.58Q207.42 3.26 205.25 3.26L205.25 3.26L205.25 3.26Q202.88 3.26 201.79 0.32L201.79 0.32L201.79 0.32Q200.70-2.75 200.51-5.63L200.51-5.63L200.51-5.63Q200.26-10.50 200.26-12.16L200.26-12.16L200.38-15.10L200.38-15.10Q200.38-15.74 200.32-16.19L200.32-16.19L197.95-14.21L198.08-10.30L198.08-10.30Q198.08-2.94 199.10 0.22L199.10 0.22L199.10 0.22Q200.13 3.39 201.34 4.16L201.34 4.16L201.34 4.16Q202.56 4.93 203.78 4.93L203.78 4.93L203.78 4.93Q206.08 4.93 207.74 3.33L207.74 3.33L207.74 3.33Q207.94 3.14 208.13 3.33L208.13 3.33L208.13 3.33Q208.32 3.52 208.13 3.71L208.13 3.71L208.13 3.71Q205.95 5.57 204.13 5.57L204.13 5.57L204.13 5.57Q202.30 5.57 201.18 4.99L201.18 4.99L201.18 4.99Q200.06 4.42 199.39 3.23L199.39 3.23L199.39 3.23Q198.72 2.05 198.30 0.86L198.30 0.86L198.30 0.86Q197.89-0.32 197.70-2.08L197.70-2.08L197.70-2.08Q197.50-3.84 197.41-5.02L197.41-5.02L197.41-5.02Q197.31-6.21 197.31-7.94L197.31-7.94L197.31-7.94Q197.31-9.66 197.25-10.50L197.25-10.50L197.25-10.50Q197.18-11.33 197.18-13.50L197.18-13.50L197.18-13.50Q183.81-1.92 178.24 8.26L178.24 8.26L178.24 8.26Q176.83 10.82 175.62 10.82L175.62 10.82L175.62 10.82Q175.23 10.82 175.23 10.08L175.23 10.08L175.23 10.08Q175.23 9.34 175.87 8.45L175.87 8.45L175.87 8.45Q182.78-2.62 197.18-14.72L197.18-14.72L197.18-14.72Q197.18-20.10 197.12-21.25L197.12-21.25L197.12-21.25Q196.42-21.18 195.78-21.18L195.78-21.18L195.78-21.18Q186.94-21.18 184.32-28.03L184.32-28.03L184.32-28.03Q179.90-23.23 179.90-17.86L179.90-17.86L179.90-17.86Q179.90-15.74 181.15-14.02L181.15-14.02L181.15-14.02Q182.40-12.29 185.02-12.29L185.02-12.29L185.02-12.29Q187.65-12.29 189.54-13.63L189.54-13.63L189.54-13.63Q191.42-14.98 192.00-15.78L192.00-15.78L192.00-15.78Q192.58-16.58 192.64-16.26L192.64-16.26L192.64-16.26Q192.26-14.59 189.54-12.80L189.54-12.80L189.54-12.80Q186.82-11.01 183.90-11.01L183.90-11.01L183.90-11.01Q180.99-11.01 179.55-13.09L179.55-13.09L179.55-13.09Q178.11-15.17 178.11-17.54ZM184.70-28.48L184.70-28.48Q185.47-26.18 187.33-24.45L187.33-24.45L187.33-24.45Q189.18-22.72 191.65-22.21L191.65-22.21L191.65-22.21Q194.11-21.70 195.30-21.70L195.30-21.70L195.30-21.70Q196.48-21.70 197.12-21.76L197.12-21.76L197.12-21.76Q196.80-29.38 194.18-33.15L194.18-33.15L194.18-33.15Q189.25-33.15 184.70-28.48L184.70-28.48ZM193.41-34.11L193.41-34.11L193.41-34.11Q191.04-36.86 188.67-36.86L188.67-36.86L188.67-36.86Q187.39-36.86 186.18-35.97L186.18-35.97L186.18-35.97Q184.19-34.30 184.19-31.55L184.19-31.55L184.19-31.55Q184.19-30.59 184.45-29.50L184.45-29.50L184.45-29.50Q188.54-33.15 193.02-34.05L193.02-34.05L193.02-34.05Q193.09-34.05 193.22-34.08L193.22-34.08L193.22-34.08Q193.34-34.11 193.41-34.11ZM194.75-33.15L194.75-33.15L194.75-33.15Q197.12-29.25 197.70-21.82L197.70-21.82L197.70-21.82Q198.98-22.02 200.19-22.40L200.19-22.40L200.19-22.40Q200.00-29.89 197.44-32L197.44-32L197.44-32Q196.35-32.96 194.75-33.15ZM200.19-21.89L200.19-21.89L200.19-21.89Q198.98-21.50 197.76-21.31L197.76-21.31L197.76-21.31Q197.95-18.62 197.95-15.36L197.95-15.36L200.26-17.28L200.26-17.28Q200.19-18.56 200.19-21.89Z" fill="#ccc"></path></g></g><style>text {
  font-size: 64px;
  font-family: Arial Black;
  dominant-baseline: central;
  text-anchor: middle;
}</style></svg>