<svg class="reduced-header-logo" xmlns="http://www.w3.org/2000/svg" viewBox="0 0 1024 1024" style="height:55px;">
<path id="Path_1" data-name="Path 1" d="M211.118,691.383c0-9.851.009-19.282,0-28.714Q211,542.232,210.862,421.8c-.024-18.958-.476-37.923-.141-56.875.43-24.433.115-48.958,4.052-73.177,9.738-59.869,40.556-104.285,96.416-129.97,24.891-11.445,51.207-17.911,78.269-21.549a303.313,303.313,0,0,1,65.284-2.094c34.058,2.791,68.031,7.553,98.764,23.1,55.215,27.923,90.441,71.966,101.432,133.835,3.387,19.055,3.977,38.364,4.392,57.664.238,11.149.427,22.3.439,33.454a53.292,53.292,0,0,1-1.06,10.342c-.86,4.332-3.307,6.488-7.716,6.665-8.623.346-17.258.459-25.89.527-13.442.108-26.884.106-40.324.132-7.745.015-12.2-3.744-12.706-11.555-.644-10.045-.922-20.12-1.054-30.185-.245-18.7-.007-37.416-.461-56.114-.459-18.8-3.236-37.363-10.812-54.67-20.5-46.835-55.263-75.785-106.664-83.065-36.675-5.194-70.441,2.3-100.1,24.858-22.135,16.831-38.776,38.091-46.945,65.087-4.76,15.737-5.41,32.1-5.567,48.422q-.324,33.831-.249,67.669c.055,45.241.379,90.481.26,135.722-.057,21.22-.353,42.465-1.5,63.645-1.559,28.774-8.8,55.8-27.854,78.488-15.369,18.3-33.725,32.184-57.148,38.549C213.314,690.885,212.642,691.023,211.118,691.383Z" transform="translate(136.185 71.629)" fill="#191918"></path>
<path id="Path_2" data-name="Path 2" d="M212.564,473.5c14.661-3.695,29.285-6.5,43.287-11.162,13.868-4.621,27.1-11.125,40.7-16.84.284,4.52.65,9.822.944,15.131,1.212,21.895,5.448,43.043,16.615,62.21,15.777,27.081,37.052,48.151,67.072,59.069,13.9,5.053,28.551,6.076,43.164,6.777,19.631.941,39.067-.395,57.876-6.676,24.909-8.321,43.378-24.79,58-46.1a148.53,148.53,0,0,0,26.582-78.933c.968-22.153,1.473-44.328,2.064-66.5.214-8.014-.192-16.05.19-24.051.386-8.107,5.3-12.986,13.378-13.069q31.318-.324,62.64-.02c8.01.075,12.084,4.431,12.115,12.957.064,17.622.258,35.269-.551,52.862-.966,20.967-3.475,41.859-9.588,62.023-18.925,62.44-60.039,103.595-121.347,124.835-27.627,9.573-56.266,13.4-85.452,13.909a325.632,325.632,0,0,1-107.888-15.978c-40.267-13.2-72.87-36.911-96.946-71.834-12.051-17.479-18.769-37.3-22.847-58.043C212.484,473.617,212.564,473.13,212.564,473.5Z" transform="translate(138.514 331.796)" fill="#191918"></path>
<path id="Path_3" data-name="Path 3" d="M254.283,230.2v-4.154q0-65.321.009-130.642a56.442,56.442,0,0,1,.234-6.109c.8-7.3,4.564-10.931,11.9-11.39,3.109-.194,6.235-.1,9.352-.1,19.556-.007,39.109-.035,58.663.035a26.773,26.773,0,0,1,7.082.924,9.418,9.418,0,0,1,7.251,8.045,37.519,37.519,0,0,1,.668,5.7q.056,55.962.022,111.926c0,.355-.066.71-.13,1.376C316.575,208.8,284.854,216.2,254.283,230.2Z" transform="translate(188.812 0)" fill="#191918"></path>
<g id="Group_1" data-name="Group 1" transform="translate(97.554 246.294)">
<path id="Path_4" data-name="Path 4" d="M286.214,306.028a18.767,18.767,0,0,0-18.941,18.394,18.388,18.388,0,0,0,18.758,18.213c10.563,0,19.159-8.232,19.159-18.323a17.85,17.85,0,0,0-5.536-12.966A19.287,19.287,0,0,0,286.214,306.028Z" transform="translate(106.907 28.68)" fill="#191918"></path>
<path id="Path_5" data-name="Path 5" d="M286.214,284.351c-10.638,0-18.941,7.979-18.941,18.178a18.454,18.454,0,0,0,18.758,18.429c10.563,0,19.159-8.23,19.159-18.321a17.855,17.855,0,0,0-5.536-12.968A19.287,19.287,0,0,0,286.214,284.351Z" transform="translate(106.907 2.566)" fill="#191918"></path>
<path id="Path_6" data-name="Path 6" d="M538.286,158.2v-3.986c-3.031.888-5.558,1.592-8.06,2.368-44.782,13.857-87.708,57.452-88.409,113.922q-.579,46.6-.736,93.206c-.207,58.685-.126,117.37-.485,176.053a198.583,198.583,0,0,1-6.762,50.816c-13.932,51.473-70.141,104.907-144.79,82.943-35.842-10.543-62.338-31.913-76.259-67.3-8.94-22.72-12.681-46.638-15.085-70.747-1.9-19.073-3.027-38.225-4.5-57.342-.65-8.422-4.652-12.329-13.008-12.717-.84-.037-1.68-.024-2.52-.035q-23.027-.3-46.052-.591c-5.518-.066-11.039-.139-16.557-.088-11.412.108-17.1,5.377-17.4,16.846-.545,20.916.855,41.751,5.362,62.193,12.34,55.971,43.64,99.113,91.233,130.135,52.732,34.373,110.895,42.939,171.952,31.018,58.531-11.425,104.327-43.656,139.761-90.96,14.767-19.712,24.6-41.79,28.253-66.39,3.25-21.886,3.982-43.933,4.006-65.989Q538.408,319.878,538.286,158.2ZM474.21,223.381a12.961,12.961,0,0,1,4.954-1.713l.437-.073.62,4.043-.474.037c-6.3.4-8.087,4.879-8.122,7.174.035,2.478,2,7.176,9,7.176h28.957v-2.039h1.9v8.049h-1.969v-1.821H484.153c-3.788,0-7.139-.146-9.981-1.967a11.535,11.535,0,0,1,.038-18.868Zm37.264,64.836v5.463h-1.931V291.9H471.807v1.784h-1.931V285.7h1.565l.293.183.035.218.037,1.638h31.944l-22.292-8.887,21.2-8.887H471.807v1.856h-1.931v-6.484h1.931v2.077h37.736v-2.077h1.931v4.881l-21.783,9.326Zm0,33.584v5.5h-1.931v-1.823H471.807V327.3h-1.931v-8.014h1.931v2.039h31.944l-22.292-8.852,21.2-8.922H471.807v1.856h-1.931v-6.484h1.931V301h37.736v-2.077h1.931v4.881l-21.783,9.326Zm-19.2,24.441,17.265,6.848V351.2h1.931v6.336h-1.931v-1.821l-20.616-8.232h-17.12v2.915h-1.931v-9.762h1.931v2.586H489l20.543-10.051v-1.859h1.931v8.122h-1.931v-1.821Zm17.265-86.619V257.8H471.807v1.823h-1.931v-7.869h1.931v1.931h37.736v-1.931h1.931v7.869ZM490.675,529.607c-11.8,0-21.381-10.053-21.381-22.4s9.615-22.4,21.381-22.4c11.8,0,21.381,10.053,21.381,22.4S502.477,529.607,490.675,529.607Zm0-47.789c-11.8,0-21.381-10.053-21.381-22.4s9.615-22.4,21.381-22.4c11.8,0,21.381,10.053,21.381,22.4S502.477,481.817,490.675,481.817Zm7.467-53.182V416.47H471.807v1.821h-1.931v-8.012h1.931v2h37.736v-2h1.931v8.012h-1.931V416.47h-9.105v12.166h9.105V426.6h1.931l-.037,8.087h-1.894v-1.859H471.807v1.9h-1.931V426.6h1.931v2.039Zm13.914-26.044v1.859h-8.814v-1.894h3.642a15.474,15.474,0,0,0,2.8-9.033c-.256-9.981-8.634-17.812-19.051-17.812-10.6,0-18.9,8.012-18.9,18.284a17.857,17.857,0,0,0,4.189,11.656l.254.366-1.42,1.31-.291-.326a18.992,18.992,0,0,1-5.137-12.968c0-12.349,9.579-22.4,21.346-22.4,11.8,0,21.381,10.053,21.381,22.4a22.808,22.808,0,0,1-1.676,8.559Z" transform="translate(-97.554 -154.213)" fill="#191918"></path>
</g></svg>